# xmcd CD database file
#
# Track frame offsets:
#	150
#	11912
#	25317
#	35660
#	47380
#	60335
#	74080
#	88142
#	103670
#	120457
#	132942
#	146690
#	163467
#	176442
#	187980
#	199430
#
# Disc length: 2797 seconds
#
# Revision: 0
# Processed by: cddbd v1.5.2PL0 Copyright (c) Steve Scherf et al.
# Submitted via: CDex 1.51
#
DISCID=eb0aeb10
DTITLE=Johnny Cash - Das Beste
DYEAR=2001
DGENRE=Blues
TTITLE0=Ring of fire
TTITLE1=If I were a carpenter
TTITLE2=Kate
TTITLE3=Folsom Prison Blues
TTITLE4=I walk the line
TTITLE5=It ain´t me babe
TTITLE6=Orange Blossom special
TTITLE7=The night the drove Old Dixi down
TTITLE8=A boy named Sue
TTITLE9=Jackson
TTITLE10=Don´t take your guns to town
TTITLE11=Ghost riders in the town
TTITLE12=Man in black
TTITLE13=A thing called love
TTITLE14=In them Old Cottonfields back home
TTITLE15=Bonanza
EXTD=YEAR: 2001
EXTT0=
EXTT1=
EXTT2=
EXTT3=
EXTT4=
EXTT5=
EXTT6=
EXTT7=
EXTT8=
EXTT9=
EXTT10=
EXTT11=
EXTT12=
EXTT13=
EXTT14=
EXTT15=
PLAYORDER=
